<svg width="100" height="107" viewBox="0 0 100 107" fill="none" xmlns="http://www.w3.org/2000/svg">
<g filter="url(#filter0_d_253_34085)">
<circle cx="50" cy="52" r="40" fill="white"/>
</g>
<path d="M50 6C61.4625 6 71.9458 10.1925 80 17.1278" stroke="#F6623A" stroke-width="12"/>
<path d="M29.1456 65V61.0114L38.4652 52.3821C39.2578 51.6151 39.9226 50.9247 40.4595 50.3111C41.005 49.6974 41.4183 49.0966 41.6996 48.5085C41.9808 47.9119 42.1214 47.2685 42.1214 46.5781C42.1214 45.8111 41.9467 45.1506 41.5973 44.5966C41.2479 44.0341 40.7706 43.6037 40.1655 43.3054C39.5604 42.9986 38.8743 42.8452 38.1072 42.8452C37.3061 42.8452 36.6072 43.0071 36.0107 43.331C35.4141 43.6548 34.9538 44.1193 34.63 44.7244C34.3061 45.3295 34.1442 46.0497 34.1442 46.8849H28.8899C28.8899 45.1719 29.2777 43.6847 30.0533 42.4233C30.8288 41.1619 31.9155 40.1861 33.3132 39.4957C34.7109 38.8054 36.3217 38.4602 38.1456 38.4602C40.0206 38.4602 41.6527 38.7926 43.0419 39.4574C44.4396 40.1136 45.5263 41.0256 46.3018 42.1932C47.0774 43.3608 47.4652 44.6989 47.4652 46.2074C47.4652 47.196 47.2692 48.1719 46.8771 49.1349C46.4936 50.098 45.8075 51.1676 44.8189 52.3438C43.8303 53.5114 42.4368 54.9134 40.6385 56.5497L36.8161 60.2955V60.4744H47.8104V65H29.1456ZM62.0884 65.358C60.1197 65.358 58.3683 65.0384 56.8342 64.3991C55.3086 63.7514 54.1112 62.8693 53.2418 61.7528C52.3725 60.6364 51.9379 59.3707 51.9379 57.956C51.9379 56.8651 52.185 55.8636 52.6793 54.9517C53.1822 54.0312 53.864 53.2685 54.7248 52.6634C55.5856 52.0497 56.5487 51.6577 57.614 51.4872V51.3082C56.2163 51.027 55.0827 50.3494 54.2134 49.2756C53.3441 48.1932 52.9094 46.9361 52.9094 45.5043C52.9094 44.1491 53.3058 42.9432 54.0984 41.8864C54.891 40.821 55.9776 39.9858 57.3583 39.3807C58.7475 38.767 60.3242 38.4602 62.0884 38.4602C63.8526 38.4602 65.4251 38.767 66.8058 39.3807C68.195 39.9943 69.2859 40.8338 70.0785 41.8991C70.8711 42.956 71.2717 44.1577 71.2802 45.5043C71.2717 46.9446 70.8285 48.2017 69.9506 49.2756C69.0728 50.3494 67.9478 51.027 66.5756 51.3082V51.4872C67.6239 51.6577 68.5742 52.0497 69.4265 52.6634C70.2873 53.2685 70.9691 54.0312 71.4719 54.9517C71.9833 55.8636 72.2433 56.8651 72.2518 57.956C72.2433 59.3707 71.8043 60.6364 70.935 61.7528C70.0657 62.8693 68.864 63.7514 67.3299 64.3991C65.8043 65.0384 64.0572 65.358 62.0884 65.358ZM62.0884 61.2926C62.9663 61.2926 63.7333 61.1349 64.3896 60.8196C65.0458 60.4957 65.5572 60.0526 65.9237 59.4901C66.2987 58.919 66.4862 58.2628 66.4862 57.5213C66.4862 56.7628 66.2944 56.0938 65.9109 55.5142C65.5273 54.9261 65.0075 54.4659 64.3512 54.1335C63.695 53.7926 62.9407 53.6222 62.0884 53.6222C61.2447 53.6222 60.4904 53.7926 59.8256 54.1335C59.1609 54.4659 58.6367 54.9261 58.2532 55.5142C57.8782 56.0938 57.6907 56.7628 57.6907 57.5213C57.6907 58.2628 57.8739 58.919 58.2404 59.4901C58.6069 60.0526 59.1225 60.4957 59.7873 60.8196C60.4521 61.1349 61.2191 61.2926 62.0884 61.2926ZM62.0884 49.5952C62.8214 49.5952 63.4734 49.446 64.0444 49.1477C64.6154 48.8494 65.0629 48.4361 65.3867 47.9077C65.7106 47.3793 65.8725 46.7699 65.8725 46.0795C65.8725 45.3977 65.7106 44.8011 65.3867 44.2898C65.0629 43.7699 64.6197 43.3651 64.0572 43.0753C63.4947 42.777 62.8384 42.6278 62.0884 42.6278C61.3469 42.6278 60.6907 42.777 60.1197 43.0753C59.5487 43.3651 59.1012 43.7699 58.7773 44.2898C58.462 44.8011 58.3043 45.3977 58.3043 46.0795C58.3043 46.7699 58.4663 47.3793 58.7901 47.9077C59.114 48.4361 59.5614 48.8494 60.1325 49.1477C60.7035 49.446 61.3555 49.5952 62.0884 49.5952Z" fill="#F6623A"/>
<defs>
<filter id="filter0_d_253_34085" x="0" y="7" width="100" height="100" filterUnits="userSpaceOnUse" color-interpolation-filters="sRGB">
<feFlood flood-opacity="0" result="BackgroundImageFix"/>
<feColorMatrix in="SourceAlpha" type="matrix" values="0 0 0 0 0 0 0 0 0 0 0 0 0 0 0 0 0 0 127 0" result="hardAlpha"/>
<feOffset dy="5"/>
<feGaussianBlur stdDeviation="5"/>
<feComposite in2="hardAlpha" operator="out"/>
<feColorMatrix type="matrix" values="0 0 0 0 0.843137 0 0 0 0 0.627451 0 0 0 0 0.568627 0 0 0 0.15 0"/>
<feBlend mode="normal" in2="BackgroundImageFix" result="effect1_dropShadow_253_34085"/>
<feBlend mode="normal" in="SourceGraphic" in2="effect1_dropShadow_253_34085" result="shape"/>
</filter>
</defs>
</svg>
